<svg xmlns="http://www.w3.org/2000/svg" width="136.813" height="33.299" viewBox="0 0 136.813 33.299">
  <g id="b" style="mix-blend-mode: luminosity;isolation: isolate">
    <g id="c" transform="translate(0)">
      <g id="Grupo_40" data-name="Grupo 40">
        <path id="Caminho_86" data-name="Caminho 86" d="M12.971,48.844l.7.314a4.7,4.7,0,0,1,3.135,5.012,5.305,5.305,0,0,1-3.592,4.8,12.293,12.293,0,0,1-3.8.541c-2.289.032-4.581.032-6.873.013C.713,59.51.013,58.823.01,57.03q-.019-7.591,0-15.182c0-1.715.665-2.457,2.363-2.467,2.918-.019,5.839-.156,8.75.11a4.993,4.993,0,0,1,4.513,6.552c-.373,1.093-1.044,1.812-2.662,2.8Z" transform="translate(0 -26.579)" fill="#00103d"/>
        <path id="Caminho_87" data-name="Caminho 87" d="M236.33,48.731a10.5,10.5,0,1,1,10.494,10.423A10.472,10.472,0,0,1,236.33,48.731Z" transform="translate(-159.715 -25.856)" fill="#00103d"/>
        <path id="Caminho_88" data-name="Caminho 88" d="M321.206,50.449a15.388,15.388,0,0,1,5.08,6.737c.49,1.125.337,1.8-.421,2.334a2.194,2.194,0,0,1-2.762-.25,6.482,6.482,0,0,1-.895-1.193q-1.541-2.456-3.054-4.937a4.664,4.664,0,0,0-4.827-2.2c-.567.049-.467.363-.47.691,0,1.78.006,3.563-.006,5.343a7.027,7.027,0,0,1-.107,1.3,1.858,1.858,0,0,1-1.89,1.621,1.888,1.888,0,0,1-2.026-1.579,5.6,5.6,0,0,1-.075-1.118q0-7.542,0-15.088c0-2.042.648-2.713,2.7-2.7,2.856.013,5.712-.117,8.565.11a5.451,5.451,0,0,1,4.957,7.281,4.651,4.651,0,0,1-2.214,2.681,10.511,10.511,0,0,1-2.548.973Z" transform="translate(-209.333 -26.615)" fill="#00103d"/>
        <path id="Caminho_89" data-name="Caminho 89" d="M79.63,56.585a1.953,1.953,0,0,1-1.339,1.838,1.825,1.825,0,0,1-2.263-.862,24.041,24.041,0,0,1-1.472-3.534.822.822,0,0,0-.924-.665q-3.438.058-6.876,0a.818.818,0,0,0-.927.658c-.412,1.144-.843,2.282-1.342,3.388a1.7,1.7,0,0,1-2.23,1.028,1.864,1.864,0,0,1-1.336-2.094,5.116,5.116,0,0,1,.321-1.167q2.961-7.528,5.942-15.045c.807-2.029,2.042-2.762,3.8-2.334a3.25,3.25,0,0,1,2.188,2.26c1.274,3.115,2.532,6.241,3.8,9.359.726,1.79,1.462,3.579,2.182,5.372a5.093,5.093,0,0,1,.48,1.8Z" transform="translate(-41.159 -25.463)" fill="#00103d"/>
        <path id="Caminho_90" data-name="Caminho 90" d="M181.541,49.675c0-2.47-.01-4.941,0-7.408.013-2.2.665-2.856,2.879-2.846,2.292.01,4.584-.078,6.873.094,3.524.266,5.557,2.266,5.676,5.625.13,3.657-1.738,5.9-5.281,6.422a35.723,35.723,0,0,1-5.265.159c-.6,0-.81.13-.794.768.045,1.751.026,3.5,0,5.252A2,2,0,0,1,184.3,59.8a1.932,1.932,0,0,1-2.665-1.683c-.227-1.991-.052-4-.091-5.994-.016-.814,0-1.624,0-2.438Z" transform="translate(-122.669 -26.632)" fill="#00103d"/>
        <path id="Caminho_91" data-name="Caminho 91" d="M126.855,46.86c1.439-2.3,2.8-4.5,4.179-6.685a8.668,8.668,0,0,1,.81-1.144,1.9,1.9,0,0,1,2.4-.35,1.727,1.727,0,0,1,.648,2.224,8.064,8.064,0,0,1-.726,1.306q-2.456,3.769-4.934,7.524a2.358,2.358,0,0,0-.418,1.391c.016,2.029.039,4.065-.036,6.091a1.983,1.983,0,0,1-2.762,1.88,2.069,2.069,0,0,1-1.274-2.191c-.013-1.906-.023-3.812,0-5.719a2.492,2.492,0,0,0-.438-1.482q-2.169-3.287-4.286-6.6a21.445,21.445,0,0,1-1.138-1.935,1.716,1.716,0,0,1,.525-2.464,1.918,1.918,0,0,1,2.645.561c1.407,2.14,2.743,4.325,4.107,6.49.2.318.4.635.694,1.109Z" transform="translate(-80.144 -25.95)" fill="#00103d"/>
        <path id="Caminho_92" data-name="Caminho 92" d="M379.619,50.683c0,2.344.016,4.688-.006,7.032a1.957,1.957,0,0,1-1.465,2.13,1.922,1.922,0,0,1-2.509-1.585,8.162,8.162,0,0,1-.113-1.491q-.015-6.326-.006-12.653a1.141,1.141,0,0,0-1.271-1.31c-1.161,0-2.324.016-3.482-.029s-1.705-.577-1.741-1.55c-.042-1.041.467-1.637,1.65-1.741,1-.088,2.007-.052,3.008-.055q5.038,0,10.076,0c1.673,0,2.431.538,2.444,1.683.013,1.167-.7,1.673-2.409,1.689-1.1.01-2.2.042-3.294-.013-.687-.036-.914.139-.9.866.052,2.344.019,4.688.019,7.028h-.007Z" transform="translate(-249.391 -26.645)" fill="#00103d"/>
        <path id="Caminho_93" data-name="Caminho 93" d="M135.45,25.581a2.77,2.77,0,1,1,2.824,2.752,2.735,2.735,0,0,1-2.824-2.752Z" transform="translate(-91.539 -15.421)" fill="#00103d"/>
        <path id="Caminho_94" data-name="Caminho 94" d="M15.9,79.831c-.96,0-1.744-.026-2.525.01-.477.019-.655-.1-.645-.613.032-1.559.016-3.119.01-4.678,0-.327-.032-.613.46-.59a41.991,41.991,0,0,1,5.531.175c1.64.292,2.467,1.128,2.519,2.532a2.654,2.654,0,0,1-2.35,2.986,14.122,14.122,0,0,1-3,.178Z" transform="translate(-8.602 -49.98)" fill="#fefefe"/>
        <path id="Caminho_95" data-name="Caminho 95" d="M15.295,54.138c-.856-.088-2.049.376-2.558-.191-.444-.493-.136-1.657-.152-2.525a13.654,13.654,0,0,0-.016-1.589c-.107-.785.243-.924.937-.885a30.129,30.129,0,0,1,4.775.217c1.407.3,1.984.924,2.023,2.172a2.507,2.507,0,0,1-1.89,2.571A13.442,13.442,0,0,1,15.295,54.138Z" transform="translate(-8.445 -33.076)" fill="#fefefe"/>
        <path id="Caminho_96" data-name="Caminho 96" d="M261.614,56.935a6.537,6.537,0,1,1-6.49-6.545A6.561,6.561,0,0,1,261.614,56.935Z" transform="translate(-167.967 -34.054)" fill="#fefefe"/>
        <path id="Caminho_97" data-name="Caminho 97" d="M325.573,48.978a15.648,15.648,0,0,1,2.914.159,2.494,2.494,0,0,1,2.1,2.506,2.354,2.354,0,0,1-1.991,2.568c-1.916.464-3.877.185-5.816.256-.37.013-.386-.211-.383-.483,0-1.5.016-3-.007-4.5-.006-.431.165-.525.554-.515.817.023,1.634.006,2.632.006Z" transform="translate(-217.876 -33.093)" fill="#fefefe"/>
        <path id="Caminho_98" data-name="Caminho 98" d="M80.213,59.413c1-2.778,1.955-5.42,2.979-8.263.48,1.281.895,2.376,1.3,3.479.509,1.371,1,2.749,1.52,4.114.2.525.113.7-.486.684-1.721-.036-3.446-.013-5.317-.013Z" transform="translate(-54.207 -34.568)" fill="#fdfdfd"/>
        <path id="Caminho_99" data-name="Caminho 99" d="M194.031,51.837c0-.123-.006-.25,0-.373.062-.862-.386-2.039.182-2.5.538-.434,1.676-.139,2.548-.146a9.117,9.117,0,0,1,2.334.211,2.544,2.544,0,0,1,2.1,2.616,2.626,2.626,0,0,1-1.9,2.963,17.183,17.183,0,0,1-4.856.327c-.418.006-.412-.279-.412-.574,0-.843,0-1.686,0-2.525Z" transform="translate(-131.055 -32.93)" fill="#fefefe"/>
        <path id="Caminho_100" data-name="Caminho 100" d="M122.529,4.214a6.092,6.092,0,0,1,6.072,5.77h4.221a10.3,10.3,0,0,0-20.592,0h4.221a6.092,6.092,0,0,1,6.072-5.77Z" transform="translate(-75.847)" fill="#00aeef"/>
      </g>
    </g>
  </g>
</svg>
