<svg xmlns="http://www.w3.org/2000/svg" width="127.993" height="35.213" viewBox="0 0 127.993 35.213">
  <g id="b" style="mix-blend-mode: luminosity;isolation: isolate">
    <g id="c" transform="translate(0 0)">
      <g id="Grupo_41" data-name="Grupo 41">
        <path id="Caminho_101" data-name="Caminho 101" d="M199.244,34.945c.922-1.054,1.84-2.137,2.794-3.19,2.333-2.576,4.688-5.13,7.011-7.714.3-.332.992-.63.792-1.04s-.906-.158-1.381-.16c-6.383-.018-12.767-.009-19.149-.026a1.686,1.686,0,0,0-1.381.568c-3.42,3.723-6.87,7.419-10.3,11.132a1.9,1.9,0,0,1-1.532.66c-4.245-.026-8.492-.012-12.737-.016-.222,0-.519.134-.647-.111-.165-.311.185-.461.341-.635q4.869-5.407,9.755-10.8c.151-.167.44-.3.362-.554-.1-.329-.449-.206-.683-.208q-7.6-.016-15.195-.011c-1.582,0-3.161-.012-4.743-.025-.162,0-.375.072-.45-.15-.058-.165.1-.257.194-.361q4.193-4.658,8.381-9.315a1.315,1.315,0,0,1,1.11-.376q10.1.011,20.2.018A1.73,1.73,0,0,0,183.413,12c2.391-2.6,4.523-5.447,7.116-7.851A15.923,15.923,0,0,1,201.695.006c6.5-.026,13,.007,19.5.025.274,0,.661-.151.8.148s-.243.493-.422.7c-2.642,3-5.308,5.987-7.934,9a1.966,1.966,0,0,1-1.664.727c-3.865-.032-7.73.019-11.6-.044-1.249-.021-1.722.945-2.458,1.583-.276.239-.058.468.3.47.674,0,1.348.007,2.02.009,5.973,0,11.947,0,17.92.019a2,2,0,0,0,1.662-.73c3.415-3.807,6.866-7.579,10.3-11.366.273-.3.447-.552.906-.183a11.35,11.35,0,0,1,4.667,9.971,2.413,2.413,0,0,1-.663,1.559c-3.416,3.805-6.791,7.649-10.2,11.461s-6.836,7.6-10.255,11.405a1.138,1.138,0,0,1-.913.42q-6.94-.021-13.879-.018a.561.561,0,0,1-.544-.215Z" transform="translate(-125.333 0.008)" fill="#00923f"/>
        <path id="Caminho_102" data-name="Caminho 102" d="M2.679,9.716A17.948,17.948,0,0,1,14.793.687,21.117,21.117,0,0,1,19.925.14Q39.294.148,58.662.145a1.18,1.18,0,0,1,.262.007c.241.053.593-.132.7.174.1.28-.232.45-.394.632C56.674,3.8,54.058,6.593,51.558,9.485a3.429,3.429,0,0,1-2.94,1.254c-9.194-.049-18.388-.021-27.581-.032-2.739,0-5.125.741-6.858,3.01a6.815,6.815,0,0,0,3.253,10.554,12.785,12.785,0,0,0,4.148.595q9.97-.011,19.939,0h.8c.053.454-.255.639-.452.855q-4.164,4.563-8.346,9.111a1.129,1.129,0,0,1-.887.468c-5.681-.028-11.365.106-17.038-.1C11.328,35.042,8,32.735,5.23,29.609a17.325,17.325,0,0,1-2.743-4.261A17.1,17.1,0,0,1,.82,18.913,19.583,19.583,0,0,1,1.9,11.364c.211-.579.545-1.089.779-1.65Z" transform="translate(-0.66 -0.114)" fill="#00923f"/>
        <path id="Caminho_103" data-name="Caminho 103" d="M532.593,37.03c-2.225,0-4.449,0-6.675,0-.253,0-.588.118-.735-.141-.171-.3.174-.464.331-.64q7.909-8.861,15.837-17.709,5.542-6.2,11.067-12.417c1.047-1.173,2.1-2.338,3.135-3.527.359-.413.621-.471,1.066-.074a12.034,12.034,0,0,1,3.944,11.472,2.125,2.125,0,0,1-.635,1.122c-1.991,2.178-4,4.344-5.98,6.53-2.766,3.047-5.512,6.112-8.272,9.164-1.763,1.951-3.543,3.888-5.3,5.848a1.31,1.31,0,0,1-1.114.368q-3.338,0-6.675,0v.005Z" transform="translate(-432.753 -1.853)" fill="#00923f"/>
        <path id="Caminho_104" data-name="Caminho 104" d="M644.287,86.16a1.957,1.957,0,0,1,.227,1.3c.007,5.937,0,11.875.007,17.814,0,.565-.023.922-.772.918-5.355-.03-10.71-.014-16.065-.025-.245,0-.6.158-.727-.111-.144-.3.167-.537.348-.739,3.306-3.7,6.629-7.384,9.931-11.083,2.157-2.415,4.289-4.854,6.428-7.285.206-.234.385-.489.619-.79Z" transform="translate(-516.63 -71.001)" fill="#00923f"/>
        <path id="Caminho_105" data-name="Caminho 105" d="M2.022,54.57a33.384,33.384,0,0,0-1.409,4.2A17.98,17.98,0,0,0,1.626,69.548c.088.211.137.436.2.656-.2-.048-.271-.213-.334-.375a18.088,18.088,0,0,1-.281-13.84,3.5,3.5,0,0,1,.809-1.42Z" transform="translate(-0.002 -44.968)" fill="#00923f"/>
      </g>
    </g>
  </g>
</svg>
