<?xml version="1.0" encoding="UTF-8"?><svg xmlns="http://www.w3.org/2000/svg" viewBox="0 0 1775.81 785.88"><defs><style>.d{fill:#002ca7;}</style></defs><g id="a"/><g id="b"><g id="c"><g><path class="d" d="M937.05,8.01c-46.45,7.81-93.02,14.96-139.33,23.57-98.98,18.41-197.04,40.88-292.97,71.74-86.43,27.81-170.72,60.6-246.38,112.08-43.68,29.72-82.67,64.28-106.03,112.95-36.94,76.95-23.42,182.09,71.15,236.72,57.96,33.48,120.89,50.69,186.03,61.31,143.26,23.37,287.2,19.06,431.18,8.83,102.15-7.26,203.65-20.18,304.81-36,100.71-15.74,200.72-35.02,300.16-57.39,95.76-21.55,190.22-47.86,284.01-76.7,15.13-4.65,30.4-8.82,46.15-12.01-27.52,20.33-54.42,41.14-84.2,57.77-113.36,63.3-233.59,110.29-356.78,150.26-87.38,28.35-176.11,51.79-265.92,70.91-91.9,19.57-184.59,34.51-278.18,43.67-96.21,9.42-192.53,13.51-289.07,6.94-99.22-6.75-196.69-22.28-288.63-62.62-74.38-32.64-139.22-78.28-176.11-152.47C-20.11,452.85-10.95,340.79,63.55,236.02c42.27-59.46,101.24-99.28,165.82-131.23,73-36.11,150.42-58.79,229.97-74.74C594.79,2.9,731.59-4.63,869.36,2.57c22.6,1.18,45.18,2.72,67.77,4.1-.03,.45-.05,.9-.08,1.35Z"/><path class="d" d="M1280.9,169.9c23.61,.77,44.94,2.26,65.67,8.97,7.08,2.29,9.36,4.92,6.71,12.45-5.58,15.86-10.65,31.94-15.15,48.14-2.17,7.81-5.29,9.29-13.17,7.16-22.08-5.98-44.53-8.6-67.49-4.85-33.34,5.46-58.95,22.07-74.86,52.02-14.69,27.66-19.5,57.26-13,88.12,7.52,35.73,36.38,56.56,78.9,57.06,17.32,.21,34.52-1.62,51.12-6.96,5.67-1.83,8.33-1.23,8.8,5.56,1.13,16.38,2.73,32.73,4.54,49.05,.71,6.47-1.08,10.34-7.66,12.1-52.1,13.93-103.99,17.21-154.27-6.25-44.37-20.7-67.36-57.72-72.25-105.32-11.2-109.16,55.98-196.53,163.93-214.3,13.24-2.18,26.85-2.12,38.19-2.95Z"/><path class="d" d="M947.66,174.61c43.38,0,86.76,.21,130.14-.17,9.52-.08,11.41,2.75,9.24,11.77-3.92,16.35-7.12,32.91-9.7,49.53-1.39,8.97-5.31,11.48-14.16,11.18-20.19-.7-40.44,.27-60.63-.44-9.29-.33-12.15,3.3-13.71,11.85-13.92,76.13-28.08,152.21-42.59,228.22-4.19,21.96-1.63,17.36-21.11,17.7-17.26,.3-34.55-.36-51.8,.21-9.35,.31-11.69-3-10-11.83,10.88-57.01,21.54-114.07,32.17-171.13,4.01-21.51,7.2-43.19,11.87-64.55,2.12-9.69-1.79-10.42-9.43-10.36-30.74,.23-61.5-.41-92.23,.36-11.05,.28-12.59-3.38-10.42-12.95,3.71-16.39,6.9-32.93,9.57-49.53,1.28-7.95,4.91-10.09,12.65-10.03,43.38,.34,86.76,.16,130.14,.16Z"/><path d="M716.83,508.3c-2.95,0-5.9,.14-8.84-.02-51.93-2.79-80.43-35.44-74.19-87.19,5.9-48.93,17.49-96.93,26.07-145.43,1.17-6.64,4.49-7.98,10.33-7.87,13.06,.24,26.15,.63,39.17-.12,9.86-.57,11.1,3.36,9.45,11.84-8.05,41.32-15.78,82.7-23.41,124.1-1.29,7.01-1.8,14.19-2.21,21.32-.79,13.64,2.96,25.16,16.54,31.16,12.92,5.72,29.7,2.39,39.84-7.79,7.96-7.99,12.88-17.85,15.09-28.71,7.57-37.12,14.74-74.32,22.03-111.49,2.03-10.32,4.25-20.62,5.83-31.02,.99-6.48,3.54-9.57,10.6-9.35,13.89,.43,27.8,.21,41.71,.09,5.39-.05,9.39,.86,7.94,7.67-11.45,53.91-16.33,109.35-33.61,161.82-16.68,50.65-48.19,70.86-102.34,70.97Z"/><path d="M497.98,507.94c-20.81-.06-41.06-3-60.55-10.77-8.35-3.33-10.84-7.65-6.85-16.27,5.3-11.44,6.61-26.74,15.08-34.16,9.28-8.11,20.97,6.32,32.76,7.24,13.82,1.08,27.47,4.6,41.33,.55,7.77-2.27,13.78-6.4,15.3-14.98,1.42-8.01-2.1-14.24-8.42-18.43-9.1-6.03-18.66-11.38-28.1-16.89-26.17-15.27-46.34-34.42-42.48-68.19,3.9-34.16,24.93-54.49,55.98-64.83,29.59-9.85,59.68-8.42,89.62-.12,9.52,2.64,11.57,7.1,7.38,16.19-4.39,9.52-7.78,19.58-10.74,29.65-2.26,7.7-5.63,8.25-12.73,5.61-15.97-5.95-32.56-8.64-49.58-4.58-7.65,1.82-14.7,4.8-16.8,13.36-2.2,8.99,3.52,14.41,10.1,18.56,11.03,6.96,22.52,13.17,33.62,20.03,23.38,14.43,38.74,33.56,36.17,62.98-2.7,31.03-18.76,52.39-46.91,65.06-17.25,7.76-35.47,10.32-54.21,10Z"/><path d="M360.97,504.97c-31.5,0-30.97,.1-24.91-31.29,12.37-64.03,24.3-128.14,35.9-192.31,1.81-10.01,5.05-14.76,16.08-13.74,11.27,1.04,22.75,.79,34.07,.06,9.97-.64,12.06,2.42,10.12,12.24-10.59,53.66-20.53,107.44-30.65,161.19-3.19,16.95-6.99,33.83-9.17,50.91-1.37,10.74-5.83,14.59-16.29,13.06-4.95-.72-10.09-.12-15.14-.13Z"/></g></g></g></svg>