<svg xmlns="http://www.w3.org/2000/svg" width="161.512" height="38.979" viewBox="0 0 161.512 38.979">
  <g id="millenniumbim" style="mix-blend-mode: luminosity;isolation: isolate">
    <g id="Millennium-bim-SVG---Rubine-Red" transform="translate(0 0)">
      <rect id="XMLID_24_" width="161.404" height="38.801" transform="translate(0.09 0.178)" fill="none"/>
      <g id="XMLID_21_" transform="translate(0 0.178)">
        <g id="XMLID_22_-link" transform="translate(0.09 0)">
          <rect id="XMLID_22_" width="161.404" height="38.801" fill="#d01c60"/>
        </g>
        <rect id="XMLID_23_" width="161.512" height="1.087" transform="translate(0 24.115)" fill="#fff"/>
      </g>
      <path id="XMLID_20_" d="M116.115,27.241l-.018,7.842a2.137,2.137,0,0,0,1.062.267,2.173,2.173,0,0,0,2.323-2.335,1.93,1.93,0,0,0-1.855-2.174,3.367,3.367,0,0,0-1.134.25l.667-1.159a5.217,5.217,0,0,1,.7-.071,2.8,2.8,0,0,1,2.917,3.03c0,2.032-1.44,3.386-3.817,3.386a11.394,11.394,0,0,1-2.053-.232V27.224Z" transform="translate(-7.63 -1.932)" fill="#fff" fill-rule="evenodd"/>
      <path id="XMLID_19_" d="M122.6,30.259V36.3h1.207V30.259Z" transform="translate(-8.141 -2.134)" fill="#fff" fill-rule="evenodd"/>
      <path id="XMLID_18_" d="M125.9,30.248v6.06h1.207V32.832c0-1.265.485-1.871,1.494-1.871.828,0,1.512.7,1.512,2.085v3.279h1.207V32.957c0-1.23.342-1.978,1.53-1.978,1.062,0,1.495.856,1.495,2.192v3.155h1.206V32.832c0-1.675-.486-2.745-2.377-2.745a2.441,2.441,0,0,0-2.125,1.141,2.229,2.229,0,0,0-2.071-1.141,2,2,0,0,0-1.872,1.034v-.873Z" transform="translate(-8.36 -2.123)" fill="#fff" fill-rule="evenodd"/>
      <path id="XMLID_17_" d="M122.373,28.6a.822.822,0,0,1,.828-.82.834.834,0,0,1,.828.82.821.821,0,0,1-.828.82A.846.846,0,0,1,122.373,28.6Z" transform="translate(-8.126 -1.969)" fill="#fff" fill-rule="evenodd"/>
      <path id="XMLID_16_" d="M16.471.134a4.895,4.895,0,0,1,2.719.8c1.315.856,2.143,2.852,1.765,5.543l-1.6,11.728C19.136,19.65,18.7,22,18.7,22h2.3s.144-1.818.36-3.44L22.9,7.12l5.114,12a6.522,6.522,0,0,0,2.359,3.226L36.4,7.085l1.531,12.833c.09.909.162,2.068.162,2.068h2.989s-.252-1.551-.432-2.8L38.87,6.122c-.054-.606-.126-1.658-.126-1.658H35.053V4.5a5.169,5.169,0,0,1-.4,1.658L30.191,17.44,25.131,5.712c-1.566-3.6-3.781-5.08-5.546-5.49-.072-.018-.18-.036-.378-.089Z" transform="translate(-1.094 -0.134)" fill="#fff" fill-rule="evenodd"/>
      <path id="XMLID_15_" d="M48.852,6.64a1.618,1.618,0,0,0-1.567-1.658,1.641,1.641,0,0,0-1.693,1.586,1.7,1.7,0,0,0,1.693,1.764A1.65,1.65,0,0,0,48.852,6.64Z" transform="translate(-3.028 -0.456)" fill="#fff" fill-rule="evenodd"/>
      <path id="XMLID_14_" d="M46.055,10.29l-.018,12.334h2.395V10.29Z" transform="translate(-3.057 -0.808)" fill="#fff" fill-rule="evenodd"/>
      <path id="XMLID_13_" d="M52.729,4.582l.036,17.663H55.25V4.582Z" transform="translate(-3.501 -0.429)" fill="#fff" fill-rule="evenodd"/>
      <path id="XMLID_12_" d="M59.325,4.563V22.226h2.521L61.81,4.563Z" transform="translate(-3.939 -0.428)" fill="#fff" fill-rule="evenodd"/>
      <path id="XMLID_9_" d="M67.847,14.319a3.354,3.354,0,0,1,3.493-2.763c1.945,0,3.205.891,3.493,2.763ZM77.7,15.87a5.8,5.8,0,0,0-6.1-6.1c-4.033,0-6.77,2.709-6.77,6.434S67.991,22.8,72.6,22.8a9.89,9.89,0,0,0,3.745-.677l1.35-2.513h-.072a7.239,7.239,0,0,1-4.447,1.426,5.051,5.051,0,0,1-5.42-5.187H77.7Z" transform="translate(-4.304 -0.774)" fill="#fff" fill-rule="evenodd"/>
      <path id="XMLID_8_" d="M114.793,6.659A1.618,1.618,0,0,0,113.227,5a1.641,1.641,0,0,0-1.693,1.586,1.7,1.7,0,0,0,1.693,1.764A1.674,1.674,0,0,0,114.793,6.659Z" transform="translate(-7.406 -0.457)" fill="#fff" fill-rule="evenodd"/>
      <path id="XMLID_7_" d="M112,10.309V22.643h2.377l.018-12.334Z" transform="translate(-7.437 -0.809)" fill="#fff" fill-rule="evenodd"/>
      <path id="XMLID_6_" d="M81.2,10.247V22.6h2.5l-.018-7.7c0-1.586.414-3.226,2.881-3.226s3.277,1.479,3.277,4.349V22.6h2.467V15.754c0-1.265.09-2.923-.684-3.992A5.04,5.04,0,0,0,87.5,9.908a4.409,4.409,0,0,0-3.817,2.067V10.229Z" transform="translate(-5.392 -0.783)" fill="#fff" fill-rule="evenodd"/>
      <path id="XMLID_5_" d="M126.734,10.233V17.38c0,2.067-1.3,3.511-3.1,3.511-2.359,0-3.061-1.533-3.061-3.992V10.251h-2.485l.019,7.111c0,3.779,1.512,5.579,4.717,5.579a4.119,4.119,0,0,0,3.907-2.085V22.6H129.2V10.268Z" transform="translate(-7.842 -0.804)" fill="#fff" fill-rule="evenodd"/>
      <path id="XMLID_4_" d="M96.375,10.228V22.579h2.5l-.018-7.7c0-1.586.414-3.226,2.881-3.226s3.277,1.479,3.277,4.349v6.577H107.5l-.019-6.844c0-1.265.091-2.923-.683-3.992a5.041,5.041,0,0,0-4.124-1.854,4.431,4.431,0,0,0-3.817,2.067V10.228Z" transform="translate(-6.4 -0.781)" fill="#fff" fill-rule="evenodd"/>
      <path id="XMLID_3_" d="M133.733,10.248V22.6h2.484V15.524c0-2.584,1.008-3.832,3.061-3.832,1.675,0,3.1,1.426,3.1,4.242v6.684h2.449V15.755c0-2.513.684-4.046,3.115-4.046,2.16,0,3.043,1.747,3.043,4.474v6.434h2.467V15.506c0-3.4-1.008-5.579-4.844-5.579a5.04,5.04,0,0,0-4.339,2.335,4.591,4.591,0,0,0-4.231-2.335,4.1,4.1,0,0,0-3.817,2.121V10.284h-2.484Z" transform="translate(-8.88 -0.784)" fill="#fff" fill-rule="evenodd"/>
    </g>
  </g>
</svg>
