<svg xmlns="http://www.w3.org/2000/svg" width="78.795" height="18.885" viewBox="0 0 78.795 18.885">
  <path id="acer_logo_icon_169649" d="M89.033,18.467c-.27-.394-.592-.664-1.935-.766-.351-.027-1.515-.065-3.472-.065-5.142,0-8.637,1.56-10.427,4.641.493-3.1-2.519-4.656-9.068-4.656q-11.519,0-14.383,9.274a8.771,8.771,0,0,0-.224,5.655l-1.812.122c-1.416.108-3.279.2-4.421.2q-4.214,0-5.229-1.414c-.6-.84-.545-2.418.153-4.71,1.172-3.8,4.076-5.505,8.716-5.505,2.4,0,4.748.252,4.748.252v0a.53.53,0,0,0,.429-.634l-.046-.363L51.9,19.225q-.163-1.257-1.873-1.49c-1.042-.07-1.818-.117-2.959-.117H47q-9.1.021-12.671,5.973,1.317-5.973-8.422-5.974a67.892,67.892,0,0,0-7.769.307,2.328,2.328,0,0,0-2.2,1.495l-.514,1.64c-.094.3.051.449.435.449l.011,0c.285-.036,1.384-.153,3.261-.295,2.483-.2,4.325-.305,5.536-.305q5.361,0,4.519,2.684a1.028,1.028,0,0,1-.811.737q-5.072.84-8.049,1.209-8.379,1.065-9.682,5.221Q8.854,36.48,19.6,36.47a55.631,55.631,0,0,0,9-.617c1.4-.234,2.105-.592,2.385-1.492l1.332-4.239c-.139,4.244,2.837,6.38,8.934,6.38a47.639,47.639,0,0,0,6.323-.292c1.25-.217,1.847-.489,2.124-1.431l.27-1.338q1.946,3.037,8.548,3.038,6.959,0,8.117-.382a1.628,1.628,0,0,0,1.188-1,1.6,1.6,0,0,0,.056-.267l.556-1.8c.1-.305-.048-.463-.429-.458l-2.977.143q-2.974.163-4.655.164a14.622,14.622,0,0,1-4.346-.431,2.512,2.512,0,0,1-1.678-2.7l9.406-1.206q6.324-.808,8.473-3.893l-3.183,11.11a.517.517,0,0,0,.07.5.78.78,0,0,0,.623.206h3.893a.916.916,0,0,0,1.008-.646L78.078,23.83c.453-1.577,1.9-2.343,4.433-2.343l5.114.061q.043,0,.085,0a.815.815,0,0,0,.8-.6l.6-1.645a.885.885,0,0,0-.071-.838ZM26.288,32.882a36.2,36.2,0,0,1-5.242.285q-5.934,0-5.186-2.4c.36-1.145,1.4-1.836,3.119-2.067l9.007-1.209Zm41.6-9.708q-.568,1.832-5.279,2.52l-7.5,1.064.191-.614a7.184,7.184,0,0,1,2.644-4.128q1.711-1.1,5.567-1.1,5.072,0,4.376,2.253Z" transform="translate(-10.388 -17.617)" fill="#fff" fill-rule="evenodd"/>
</svg>
