<svg xmlns="http://www.w3.org/2000/svg" width="57.334" height="30.221" viewBox="0 0 57.334 30.221">
  <path id="cisco_logo_icon_145406" d="M39.016,37.422V34.763l-.056.029a4.9,4.9,0,0,1-1.914.486,2.792,2.792,0,0,1-1.922-.57,2.448,2.448,0,0,1-.84-1.184,2.9,2.9,0,0,1-.056-1.6,2.415,2.415,0,0,1,.849-1.362,2.653,2.653,0,0,1,1.344-.579,4.515,4.515,0,0,1,2.539.477l.056.029v-2.67l-.122-.029a6.855,6.855,0,0,0-2.417-.317,5.5,5.5,0,0,0-2.155.495,4.778,4.778,0,0,0-1.763,1.362,5.3,5.3,0,0,0-.1,6.457,5.043,5.043,0,0,0,2.809,1.81,6.582,6.582,0,0,0,3.555-.122Zm-26.268,0V34.763l-.056.029a4.857,4.857,0,0,1-1.914.486,2.792,2.792,0,0,1-1.922-.57,2.508,2.508,0,0,1-.84-1.184,2.9,2.9,0,0,1-.056-1.6,2.416,2.416,0,0,1,.849-1.362,2.653,2.653,0,0,1,1.344-.579,4.515,4.515,0,0,1,2.539.477l.056.029v-2.67l-.122-.029a6.828,6.828,0,0,0-2.417-.317,5.531,5.531,0,0,0-2.155.495,4.928,4.928,0,0,0-1.763,1.362,5.308,5.308,0,0,0-.1,6.457A5.013,5.013,0,0,0,9,37.6a6.585,6.585,0,0,0,3.555-.122Zm9.378-2.2-.009,2.286.159.029c.532.093,1.055.159,1.586.206a11.922,11.922,0,0,0,1.408.029,6.3,6.3,0,0,0,1.315-.253,3.646,3.646,0,0,0,1.362-.727,2.785,2.785,0,0,0,.794-1.138,3.107,3.107,0,0,0-.018-2.3,2.415,2.415,0,0,0-.71-.989,2.9,2.9,0,0,0-1.045-.607l-1.727-.643a.909.909,0,0,1-.466-.448.573.573,0,0,1,.018-.523.938.938,0,0,1,.364-.346,2.046,2.046,0,0,1,.616-.177,3.666,3.666,0,0,1,1.1.018,9.788,9.788,0,0,1,1.269.224l.093.018V27.773l-.168-.038a12.188,12.188,0,0,0-1.3-.224,6.484,6.484,0,0,0-1.707-.009,3.719,3.719,0,0,0-1.96.785,2.658,2.658,0,0,0-.84,1.157,3.265,3.265,0,0,0,0,2.146,2.34,2.34,0,0,0,.607.914,3.348,3.348,0,0,0,.785.561,5.3,5.3,0,0,0,1.184.466c.131.047.271.084.4.131l.206.075.056.029a1.432,1.432,0,0,1,.541.326.851.851,0,0,1,.242.364.665.665,0,0,1,0,.383.829.829,0,0,1-.392.477,2.071,2.071,0,0,1-.663.206,4.7,4.7,0,0,1-1.018.047,10.987,10.987,0,0,1-1.335-.177c-.224-.047-.457-.1-.681-.159Zm-5.916,2.37h2.51V27.643h-2.51Zm29.049-7.009a2.619,2.619,0,1,1,3.313,4.058l-.047.029A2.616,2.616,0,0,1,45.258,30.581Zm-3.639,2.035a5.243,5.243,0,0,0,6.373,5.04,5.112,5.112,0,0,0,1.67-9.406,5.27,5.27,0,0,0-8.045,4.368ZM54.853,19.635a1.242,1.242,0,0,0,2.481,0V16.883a1.242,1.242,0,0,0-2.481,0Zm-6.794,0a1.244,1.244,0,0,0,2.481,0V13.458a1.243,1.243,0,0,0-2.481,0Zm-6.9,2.492a1.244,1.244,0,0,0,2.481,0V8.754a1.242,1.242,0,0,0-2.481,0Zm-6.774-2.492a1.243,1.243,0,0,0,2.481,0V13.458a1.242,1.242,0,0,0-2.481,0Zm-6.934,0a1.246,1.246,0,0,0,2.481,0V16.883a1.242,1.242,0,0,0-2.481,0Zm-6.85,0a1.242,1.242,0,0,0,2.481,0V13.458a1.242,1.242,0,0,0-2.481,0Zm-6.9,2.492a1.242,1.242,0,0,0,2.481,0V8.754a1.242,1.242,0,0,0-2.481,0ZM6.868,19.635a1.245,1.245,0,0,0,2.481,0V13.458a1.237,1.237,0,0,0-2.473,0v6.178ZM0,19.635a1.244,1.244,0,0,0,2.481,0V16.883a1.242,1.242,0,0,0-2.481,0Z" transform="translate(0 -7.565)" fill="#fff"/>
</svg>
