<svg xmlns="http://www.w3.org/2000/svg" width="75.128" height="23.5" viewBox="0 0 75.128 23.5">
  <path id="dell_logo_icon_168288" d="M51.468,18.43l4.7,3.2L46.106,28.094c.51.389,1.092.716,1.6,1.1l10.125-6.423,4.4,2.954L52.229,32.284a9.836,9.836,0,0,0,1.656,1.052l10.259-6.508V19.719h7.507V33.886l6.656.045v6.656H64.19V33.873L51.576,41.93,38.662,33.273a9.951,9.951,0,0,1-9.212,7.359c-3.133.224-6.6-.166-10.161,0V19.759c4.449.3,9.337-.6,12.865.5a9.774,9.774,0,0,1,6.356,6.558l12.963-8.308ZM26.4,26.389V33.9c1.79.009,3.147.112,4.208-.7a4.36,4.36,0,0,0,.5-5.806c-.927-1.065-2.489-1.289-4.655-1.15-.058.009-.054.081-.045.152Zm53.9-6.75h7.507V33.855h6.607v6.656H80.25V19.786c0-.072-.009-.143.045-.152Z" transform="translate(-19.289 -18.43)" fill="#fff"/>
</svg>
