<svg xmlns="http://www.w3.org/2000/svg" width="110.822" height="24.863" viewBox="0 0 110.822 24.863">
  <path id="hp_logo_icon_169029" d="M44.133,42.835H27.673l.618-1.695a10.744,10.744,0,0,0-.7-21.475l.593-1.694H44.457a2.608,2.608,0,0,1,2.5,2.339V39.381c0,2.233-.887,3.444-2.825,3.444Zm-17.1-14.524c-.161.483-2.421,6.832-2.421,6.832H21.972l2.906-8.177H23.424l-2.9,8.177H17.965L24.07,17.982h2.556l-2.69,7.557h1.909a1.49,1.49,0,0,1,1.56,1.453,5.018,5.018,0,0,1-.377,1.318Zm8.526-.028q-.953,2.735-1.935,5.46c-.269.724-.646,1.775-1.883,1.775H28.86l-2.637,7.316H23.586l6.16-17.3h4.627a1.507,1.507,0,0,1,1.559,1.453,4.685,4.685,0,0,1-.377,1.29ZM22.16,42.835H9.275c-1.937,0-2.825-1.211-2.825-3.444V20.321a2.6,2.6,0,0,1,2.5-2.339H22.613l-.565,1.656a11.5,11.5,0,0,0-7.235,10.571A11.173,11.173,0,0,0,22.8,40.968Zm9.727-15.868-2.529,7.127h1.461l2.529-7.127H31.895m82.6-3.551v6.3h-1.746v-6.3h-2.662v-1.69h7.071v1.7Zm-8.464,0v6.3H104.28v-6.3h-2.652v-1.69H108.7v1.7Zm10.346,18.3a2.273,2.273,0,0,1-1.527.42h-5.658V34.143h5.658a2.4,2.4,0,0,1,1.527.42c.4.353.9.751.9,3.415s-.314,3.314-.9,3.756ZM94.028,29.725a1.274,1.274,0,0,1-1.415-1.193V22.92a1.266,1.266,0,0,1,1.415-1.193h5.988v1.7H94.36v1.4h4.948v1.525H94.36v1.658h5.877v1.7Zm12.44,9.9a1.4,1.4,0,0,1,.619,1.105v1.415h-1.724V40.929c0-.442-.375-1.016-1.281-1.016h-2.939v2.232H99.4v-8h5.634c1.393,0,2.387,1.3,2.387,3.049a2.826,2.826,0,0,1-.952,2.432Zm-20.13-9.9a1.274,1.274,0,0,1-1.415-1.193V21.726h1.746v6.3h5.039v1.7Zm9.9,12.417-.708-1.525H90.935l-.686,1.525H88.857V41.059l3.073-6.916h1.612a1.306,1.306,0,0,1,1.393.84l3.159,7.161ZM80.945,29.725H79.552a1.236,1.236,0,0,1-1.038-.927L77.3,24.069l-1.547,5.656H74.428c-.4,0-.862-.265-1.138-1.138l-2.156-6.861h1.813l1.679,5.526,1.723-5.526h1.945L80,27.252l1.767-5.526h1.856ZM84.722,37.9l3.1,3.16v1.083h-1.3l-3.344-3.381H82.04v3.382H80.294v-8H82.04v2.918h1.138l2.962-2.918H88.5Zm-20.9-8.175a1.263,1.263,0,0,1-1.415-1.193V22.92a1.254,1.254,0,0,1,1.415-1.193h5.988v1.7H64.152v1.4H69.1v1.525h-4.95v1.658h5.877v1.7ZM78.227,41.5c-.6.6-.993.707-3.558.707-2.483,0-2.916-.043-3.536-.707-.574-.6-.685-1.569-.685-3.382,0-1.745.111-2.717.685-3.314.619-.662,1.062-.707,3.536-.707,2.563,0,2.962.111,3.558.707a1.779,1.779,0,0,1,.42,1.239v.517H76.967a1.633,1.633,0,0,0-.155-.662c-.155-.2-.509-.287-2.166-.287-1.746,0-2.011.021-2.187.243-.176.2-.243.642-.243,2.276,0,1.658.065,2.1.243,2.3.176.221.442.243,2.188.243,1.658,0,2.011-.087,2.166-.287a1.086,1.086,0,0,0,.111-.662h1.723v.553a1.765,1.765,0,0,1-.42,1.238Zm-19.6-11.778V26.367h-4.84v3.358H52.032v-8h1.746v3.1h4.84v-3.1h1.746v8Zm9.1,12.419-.662-1.525h-4.64l-.685,1.525H59.909l3.492-8H65.07a1.324,1.324,0,0,1,1.393.84l3.159,7.161Zm-9.7-2.276H53.788v2.276H52.032v-8h5.791c1.392,0,2.186,1.138,2.186,2.9,0,1.612-.795,2.828-1.989,2.828Zm57.14-3.956a1.13,1.13,0,0,0-.832-.265h-3.41v4.884h3.41a1.279,1.279,0,0,0,.828-.221c.259-.265.4-.949.4-2.3,0-1.325-.041-1.855-.383-2.1Zm-10.493-.132h-3.536v2.541h3.47c.639,0,.993-.642.993-1.259,0-.642-.419-1.283-.927-1.283Zm-11.424-.42L91.619,39.05h3.225ZM64.746,35.27l-1.635,3.78h3.27Zm-7.347.486H53.775V38.24h3.637c.517,0,.828-.6.828-1.238,0-.618-.331-1.238-.828-1.238Z" transform="translate(-6.45 -17.972)" fill="#fff"/>
</svg>
