<svg xmlns="http://www.w3.org/2000/svg" width="71.382" height="23.795" viewBox="0 0 71.382 23.795">
  <path id="lenovo_logo_icon_145112" d="M60.24,20.843a2.413,2.413,0,0,0-2.429,2.568,2.49,2.49,0,0,0,2.463,2.579A2.423,2.423,0,0,0,62.7,23.411,2.487,2.487,0,0,0,60.24,20.843Zm-19.367,0a2.4,2.4,0,0,0-2.416,2.568A2.483,2.483,0,0,0,40.92,25.99a2.411,2.411,0,0,0,2.416-2.579A2.48,2.48,0,0,0,40.873,20.843Zm-20.843-.163a2.359,2.359,0,0,0-1.941.917,2.933,2.933,0,0,0-.511,2.184l4.392-1.814a2.106,2.106,0,0,0-1.941-1.289ZM0,10.667V34.462H71.382V10.667ZM14.894,28H6.623v-11.9H9.179v9.585H14.9Zm5.4-1.849a3.839,3.839,0,0,0,2.626-.977l1.593,1.22a6.041,6.041,0,0,1-4.263,1.753,4.742,4.742,0,1,1-.265-9.458A4.6,4.6,0,0,1,23.6,20.179a4.962,4.962,0,0,1,1.1,2.556l-6.436,2.684a2.817,2.817,0,0,0,2.032.732ZM34.819,28H32.3V22.784a2.006,2.006,0,0,0-2.115-1.93,1.96,1.96,0,0,0-2.079,1.93V28h-2.51V18.836h2.521V20.15a3.809,3.809,0,0,1,2.973-1.463,3.524,3.524,0,0,1,3.719,3.636Zm5.9.149a4.738,4.738,0,1,1,4.939-4.74A4.736,4.736,0,0,1,40.721,28.151Zm8.318-.163-3.765-9.155h2.869l2.278,6.25,2.278-6.25h2.869L51.79,27.988Zm11.037.163a4.738,4.738,0,1,1,4.939-4.74A4.741,4.741,0,0,1,60.077,28.151Zm5.949-1.242h-.419V28h-.243V26.909h-.406v-.232h1.068ZM67.641,28H67.4V27.06l-.406.638h-.036l-.406-.638V28h-.243V26.677h.268l.395.627.395-.627h.268Z" transform="translate(0 -10.667)" fill="#fff"/>
</svg>
