<svg id="Microsoft_logo__2012_" data-name="Microsoft_logo_(2012)" xmlns="http://www.w3.org/2000/svg" width="125.575" height="26.781" viewBox="0 0 125.575 26.781">
  <path id="Caminho_70" data-name="Caminho 70" d="M111.071,12.39V28.459h-2.79V15.85h-.037l-4.984,12.61H101.4L96.3,15.85h-.037v12.61H93.7V12.39h4.017l4.612,11.9h.074l4.873-11.9h3.794Zm2.306,1.227a1.415,1.415,0,0,1,.484-1.116,1.663,1.663,0,0,1,1.153-.446,1.628,1.628,0,0,1,1.19.446,1.546,1.546,0,0,1,.484,1.116,1.414,1.414,0,0,1-.484,1.116,1.689,1.689,0,0,1-1.19.446,1.541,1.541,0,0,1-1.153-.446A1.684,1.684,0,0,1,113.377,13.618Zm3.013,3.31V28.459h-2.715V16.928h2.715Zm8.22,9.559a3.134,3.134,0,0,0,1.339-.3,5.876,5.876,0,0,0,1.339-.744v2.529a4.746,4.746,0,0,1-1.488.558,9.153,9.153,0,0,1-1.823.186,5.464,5.464,0,0,1-4.129-1.6,5.55,5.55,0,0,1-1.6-4.092,6.564,6.564,0,0,1,1.637-4.575,5.889,5.889,0,0,1,4.612-1.785,6.846,6.846,0,0,1,1.525.186,5.068,5.068,0,0,1,1.227.446v2.6a5.4,5.4,0,0,0-1.265-.707,4.274,4.274,0,0,0-1.339-.26,3.392,3.392,0,0,0-2.6,1.041,3.9,3.9,0,0,0-.967,2.827,3.722,3.722,0,0,0,.967,2.715A3.479,3.479,0,0,0,124.61,26.488Zm10.378-9.745a3.007,3.007,0,0,1,.6.037,3.859,3.859,0,0,1,.446.112v2.753a1.67,1.67,0,0,0-.632-.3,3.816,3.816,0,0,0-1-.149,2.08,2.08,0,0,0-1.674.856,4.108,4.108,0,0,0-.707,2.6v5.8H129.3V16.928h2.715v1.823h.037a3.5,3.5,0,0,1,1.116-1.488A3.277,3.277,0,0,1,134.988,16.742Zm1.19,6.137a6.425,6.425,0,0,1,1.6-4.538,5.918,5.918,0,0,1,4.464-1.674,5.468,5.468,0,0,1,4.2,1.6,6.142,6.142,0,0,1,1.525,4.352,6.3,6.3,0,0,1-1.6,4.464,5.8,5.8,0,0,1-4.389,1.674,5.73,5.73,0,0,1-4.24-1.562A5.969,5.969,0,0,1,136.178,22.88Zm2.827-.112a4.056,4.056,0,0,0,.818,2.753,2.973,2.973,0,0,0,2.343.967,2.708,2.708,0,0,0,2.269-.967,4.344,4.344,0,0,0,.781-2.827,4.486,4.486,0,0,0-.781-2.827,3.1,3.1,0,0,0-4.538.037A4.075,4.075,0,0,0,139.005,22.768Zm13.019-2.79a1.181,1.181,0,0,0,.372.93,6.362,6.362,0,0,0,1.637.818,5.672,5.672,0,0,1,2.269,1.451,3.013,3.013,0,0,1,.67,1.971,3.123,3.123,0,0,1-1.265,2.6,5.235,5.235,0,0,1-3.385.967,8.813,8.813,0,0,1-1.6-.186,6.437,6.437,0,0,1-1.488-.446V25.409a6.5,6.5,0,0,0,1.6.818,5.014,5.014,0,0,0,1.562.3,2.5,2.5,0,0,0,1.339-.26.913.913,0,0,0,.446-.856,1.31,1.31,0,0,0-.446-.967,6.869,6.869,0,0,0-1.711-.893,5.116,5.116,0,0,1-2.12-1.413,3.38,3.38,0,0,1,.6-4.575,4.913,4.913,0,0,1,3.2-1,5.9,5.9,0,0,1,1.339.149c.484.112.93.223,1.265.335v2.641a8.012,8.012,0,0,0-1.265-.632,3.936,3.936,0,0,0-1.413-.26,2.074,2.074,0,0,0-1.19.3A1.188,1.188,0,0,0,152.024,19.978Zm6.1,2.9a6.425,6.425,0,0,1,1.6-4.538,5.918,5.918,0,0,1,4.464-1.674,5.468,5.468,0,0,1,4.2,1.6,6.142,6.142,0,0,1,1.525,4.352,6.3,6.3,0,0,1-1.6,4.464,5.8,5.8,0,0,1-4.389,1.674,5.73,5.73,0,0,1-4.24-1.562A6.131,6.131,0,0,1,158.124,22.88Zm2.827-.112a4.056,4.056,0,0,0,.818,2.753,2.973,2.973,0,0,0,2.343.967,2.708,2.708,0,0,0,2.269-.967,4.344,4.344,0,0,0,.781-2.827,4.486,4.486,0,0,0-.781-2.827,3.1,3.1,0,0,0-4.538.037A4.259,4.259,0,0,0,160.951,22.768Zm18-3.608H174.9v9.3h-2.753v-9.3h-1.934V16.928h1.934v-1.6a4.011,4.011,0,0,1,4.2-4.129c.335,0,.632.037.893.037a1.777,1.777,0,0,1,.67.149v2.343a4.56,4.56,0,0,0-.484-.186,2.473,2.473,0,0,0-.781-.112,1.679,1.679,0,0,0-1.3.521,2.371,2.371,0,0,0-.446,1.562v1.376h4.054v-2.6l2.715-.818v3.422h2.753v2.232h-2.753v5.393A2.476,2.476,0,0,0,182.041,26a1.548,1.548,0,0,0,1.227.446,1.836,1.836,0,0,0,.558-.112,1.944,1.944,0,0,0,.558-.26V28.31a2.594,2.594,0,0,1-.856.26,6.445,6.445,0,0,1-1.19.112,3.36,3.36,0,0,1-2.567-.893,3.932,3.932,0,0,1-.856-2.753l.037-5.877Z" transform="translate(-58.847 -7.034)" fill="#fff"/>
  <g id="Grupo_18" data-name="Grupo 18">
    <rect id="Retângulo_18" data-name="Retângulo 18" width="12.721" height="12.721" fill="#fff"/>
    <rect id="Retângulo_19" data-name="Retângulo 19" width="12.721" height="12.721" transform="translate(14.06)" fill="#fff"/>
    <rect id="Retângulo_20" data-name="Retângulo 20" width="12.721" height="12.721" transform="translate(0 14.06)" fill="#fff"/>
    <rect id="Retângulo_21" data-name="Retângulo 21" width="12.721" height="12.721" transform="translate(14.06 14.06)" fill="#fff"/>
  </g>
</svg>
