<svg xmlns="http://www.w3.org/2000/svg" width="106.408" height="16.247" viewBox="0 0 106.408 16.247">
  <path id="samsung_logo_icon_144912" d="M87.857,14.061,88.066,26h-.1L84.5,14.061H78.819V29.094h3.757l-.209-12.35h.1l3.708,12.35h5.437V14.061Zm-71.594,0-2.84,15.189h4.1l2.095-13.819h.086l2.045,13.819h4.07L23.017,14.061Zm22.963,0L37.355,25.646h-.1L35.363,14.061h-6.2l-.3,15.189h3.811l.1-13.663h.033L35.36,29.251h3.86l2.547-13.663h.1l.1,13.663h3.811l-.362-15.189ZM7.013,24.938a2.064,2.064,0,0,1,.053,1.107c-.1.519-.469,1.021-1.473,1.021A1.346,1.346,0,0,1,4.07,25.7V24.226H0v1.16C0,28.8,2.683,29.8,5.543,29.8c2.737,0,5.021-.951,5.387-3.445a7.231,7.231,0,0,0,0-2.494c-.712-3.205-6.511-4.1-6.91-5.889a2.081,2.081,0,0,1,0-.815A1.238,1.238,0,0,1,5.387,16.14a1.288,1.288,0,0,1,1.42,1.367v.918h3.811V17.367c0-3.309-3-3.811-5.127-3.811-2.7,0-4.935.9-5.334,3.342a4.554,4.554,0,0,0,.053,2.045C.815,22.078,6.255,23,7.016,24.935Zm49.445,0a2.049,2.049,0,0,1,.053,1.107c-.1.519-.469,1.021-1.473,1.021A1.346,1.346,0,0,1,53.515,25.7V24.226h-4.07v1.16c0,3.358,2.634,4.383,5.49,4.383,2.737,0,4.971-.918,5.334-3.465a7.3,7.3,0,0,0,0-2.494c-.605-3.152-6.354-4.1-6.753-5.836a2.081,2.081,0,0,1,0-.815,1.227,1.227,0,0,1,1.367-1.021,1.315,1.315,0,0,1,1.42,1.367v.918h3.757V17.367c0-3.309-2.943-3.811-5.074-3.811-2.7,0-4.885.848-5.284,3.342a5.9,5.9,0,0,0,.033,2.045c.625,3.136,5.959,4,6.72,5.992Zm12.8,2.028a1.384,1.384,0,0,0,1.473-1.107,2.086,2.086,0,0,0,.053-.572V14.065h3.86V24.991a5.431,5.431,0,0,1-.053,1c-.243,2.856-2.494,3.774-5.284,3.774S64.285,28.852,64.022,26c0-.14-.053-.712-.053-1V14.065h3.86V25.287a1.9,1.9,0,0,0,.053.572,1.2,1.2,0,0,0,1.367,1.107Zm31.712-.156a1.468,1.468,0,0,0,1.576-1.107,2.027,2.027,0,0,0,.053-.555v-2.2h-1.576V20.715h5.387v4.07a8.03,8.03,0,0,1-.053,1.021c-.259,2.79-2.65,3.757-5.334,3.757-2.7,0-5.074-.971-5.334-3.757a8.056,8.056,0,0,1-.053-1.021V18.377c0-.243.053-.761.053-1,.346-2.856,2.634-3.774,5.334-3.774,2.683,0,5.021.918,5.334,3.774.053.449.053,1,.053,1V18.9H102.6v-.865a3.028,3.028,0,0,0-.053-.572,1.372,1.372,0,0,0-1.523-1.107A1.4,1.4,0,0,0,99.5,17.46a3.138,3.138,0,0,0-.053.728v6.963a1.856,1.856,0,0,0,.053.555c0,.4.4,1.107,1.473,1.107Z" transform="translate(0 -13.556)" fill="#fff"/>
</svg>
